<svg width="269" height="25" viewBox="0 0 269 25" fill="none" xmlns="http://www.w3.org/2000/svg">
<path d="M153.24 23.8253C155.844 23.6263 156.554 22.8965 156.656 21.1403C156.722 20.1803 156.758 18.5568 156.758 17.1323C156.758 16.4376 156.691 15.9732 156.318 14.9781C155.201 12.094 152.126 5.63522 151.686 4.74152C151.012 3.34829 149.961 2.3219 147.56 2.09164C146.544 1.99408 146.615 1.29551 147.56 1.36186C148.878 1.45942 150.2 1.59211 151.549 1.59211C153.577 1.59211 154.828 1.36186 156.216 1.36186C157.197 1.36186 157.232 1.99018 156.216 2.09164C154.357 2.29068 153.647 2.98534 154.424 4.77664C155.303 6.82942 156.589 9.97882 157.672 12.496C158.178 13.6902 159.158 13.6902 159.699 12.5272C160.884 10.0764 162.472 6.63038 163.284 4.77274C164.061 3.01656 163.351 2.28678 161.492 2.08774C160.476 1.99018 160.578 1.35795 161.558 1.35795C162.943 1.35795 163.994 1.58821 164.904 1.58821C166.257 1.58821 167.238 1.35795 168.555 1.35795C169.501 1.35795 169.469 1.98627 168.454 2.08774C166.053 2.318 165.006 3.34829 164.327 4.73762C163.01 7.45383 160.609 12.4258 159.491 14.9429C159.221 15.5713 159.119 16.0708 159.119 17.0621L159.221 21.1715C159.256 22.5648 160.068 23.5911 163.076 23.8565C164.057 23.9229 163.99 24.6175 163.076 24.5512C161.115 24.4536 159.558 24.3209 157.868 24.3209C156.515 24.3209 155.299 24.5512 153.236 24.5512C152.255 24.5512 152.188 23.9229 153.236 23.8214L153.24 23.8253Z" fill="#231F20"/>
<path d="M164.873 17.0389C164.873 12.3597 168.254 8.74976 172.717 8.74976C177.18 8.74976 179.785 12.8046 179.785 16.6252C179.785 21.3045 176.404 24.9144 171.94 24.9144C168.493 24.9144 164.873 22.6353 164.873 17.0389ZM173.09 23.5211C176.235 23.5211 177.788 21.3006 177.788 18.9317C177.788 14.9627 175.423 10.1976 171.195 10.1976C168.018 10.1976 166.834 12.8046 166.865 15.9696C166.9 19.8761 169.842 23.5211 173.086 23.5211H173.09Z" fill="#231F20"/>
<path d="M182.997 19.9697L182.962 12.5392C182.962 11.0874 182.216 10.7049 181.236 10.6152C180.255 10.5254 180.051 9.99465 181.236 9.84635C182.656 9.66683 183.534 9.45999 184.413 8.98777C184.989 8.66386 185.46 8.74972 185.358 9.54975C184.883 13.3704 185.087 14.8495 185.087 16.4496C185.087 17.3667 185.123 19.0253 185.154 19.7941C185.256 21.7766 186.37 22.9903 188.637 22.9903C191.747 22.9903 193.238 19.4663 193.202 12.0045C193.202 11.0874 192.324 10.6737 191.276 10.5839C190.465 10.5254 190.296 10.022 191.276 9.87367C192.665 9.66683 194.014 9.33901 194.724 8.92533C195.128 8.68727 195.571 8.83557 195.536 9.22193C195.332 11.4425 195.332 14.8495 195.332 16.4457V16.5042C195.332 18.1043 195.434 20.4732 195.567 21.3903C195.701 22.3074 196.446 22.7523 197.493 22.8108C198.305 22.8694 198.474 23.3728 197.493 23.5211C196.105 23.7279 194.755 24.0558 194.045 24.4694C193.641 24.7075 193.198 24.5592 193.234 24.1728C193.3 23.4899 193.402 20.9454 193.402 20.4419C193.402 20.2351 193.336 20.0556 193.167 20.0556C192.998 20.0556 192.861 20.2351 192.794 20.4419C191.849 23.4899 189.786 24.5865 187.856 24.5865C185.625 24.5865 182.989 23.7865 182.989 19.9658L182.997 19.9697Z" fill="#231F20"/>
<path d="M227.339 20.8905C228.904 18.5294 231.077 15.22 232.991 11.9691C233.948 10.33 231.795 10.9076 230.112 11.8911C228.826 12.613 228.649 11.9106 229.661 11.2276C231.756 9.80316 233.815 9.18655 235.101 8.8236C236.286 8.48018 237.262 8.95239 235.772 11.2315C230.505 19.4231 229.791 21.1637 229.708 21.7491C229.665 22.2213 230.061 22.393 230.359 22.4593C231.175 22.6389 233.234 20.7383 234.38 19.7978C234.709 19.5285 235.066 19.708 234.764 20.067C233.815 21.2027 229.865 24.7307 227.492 24.555C226.245 24.4614 225.767 23.3335 227.339 20.8866V20.8905ZM237.376 4.08583C238.365 4.17169 239.098 4.95221 239.02 5.83811C238.941 6.75132 238.086 7.39135 237.098 7.30159C236.074 7.21183 235.344 6.4313 235.423 5.51809C235.497 4.6322 236.352 3.99607 237.376 4.08583Z" fill="#231F20"/>
<path d="M257.242 22.1317C260.556 22.1317 262.662 19.3179 262.662 13.2805C262.662 11.579 262.16 10.818 261.156 10.818C258.277 10.818 252.053 19.111 250.547 23.0097C249.578 25.4411 247.703 24.7386 248.138 22.6585C250.213 13.1635 256.069 2.55615 267.518 2.55615C268.455 2.55615 268.855 3.05569 268.589 3.78548C268.322 4.54648 267.686 5.04602 266.514 5.04602C253.798 5.04602 253.327 12.1956 252.057 16.9451C251.923 17.5032 252.292 17.5617 252.594 17.2105C256.375 13.0776 260.325 8.74179 262.701 8.74179C264.443 8.74179 265.478 9.6511 265.478 11.3487C265.478 17.1207 259.556 24.5669 255.842 24.5669C253.935 24.5669 255.238 22.1356 257.246 22.1356L257.242 22.1317Z" fill="#231F20"/>
<path d="M268.196 22.9551C268.196 23.7864 267.659 24.563 266.455 24.563C265.251 24.563 264.713 23.7864 264.713 22.9551C264.713 22.1238 265.251 21.4019 266.455 21.4019C267.659 21.4019 268.196 22.1512 268.196 22.9551Z" fill="#231F20"/>
<path d="M236.411 21.5152C237.862 21.4021 239.255 23.1973 240.977 23.0646C242.561 22.9397 243.644 22.0304 243.659 20.5084C243.73 18.3775 240.698 16.0477 240.749 14.112C240.879 10.5957 244.307 8.89418 246.295 8.74197C250.307 8.42977 249.856 11.7782 248.205 11.907C247.091 11.9929 246.699 9.56933 244.813 9.71373C243.565 9.81129 242.734 10.8689 242.722 11.6143C242.636 13.9676 245.868 16.6682 245.789 19.1307C245.679 22.9202 241.181 24.3485 238.616 24.5476C234.705 24.852 234.556 21.6596 236.411 21.5191V21.5152Z" fill="#231F20"/>
<path d="M210.462 24.4148C210.278 24.7348 209.658 24.4967 209.639 24.0245C209.333 19.5716 208.694 9.41703 208.05 4.63633C207.882 3.2509 206.936 2.22842 204.603 1.99817C203.622 1.9006 203.928 1.20594 204.873 1.27228C206.16 1.36985 207.376 1.50253 208.729 1.50253C210.419 1.50253 211.4 1.27228 213.361 1.27228C214.918 1.27228 215.828 1.50253 216.538 1.50253C218.228 1.50253 219.444 1.27228 219.715 1.27228C220.695 1.27228 220.491 1.9006 219.444 2.06451C218.668 2.1972 218.33 2.92308 218.428 4.66755C218.464 5.45978 218.495 7.20815 218.597 8.9214C218.597 9.24922 218.868 9.24922 219.072 8.9214C219.95 7.37206 220.695 5.69004 221.268 4.66755C222.182 2.91918 222.519 2.1933 221.707 2.06451C220.727 1.9006 220.829 1.27228 221.809 1.27228C222.554 1.27228 223.296 1.47131 224.108 1.47131C224.817 1.47131 225.053 1.40497 226.033 1.3074C227.014 1.20984 227.014 1.9006 225.967 2.03329C223.837 2.29867 223.158 3.25481 222.315 4.63633C221.233 6.51739 220.119 8.39455 219.103 10.1117C218.899 10.4395 218.832 10.7712 218.868 11.1654L219.374 17.8935C219.476 18.8809 220.287 18.8496 220.86 17.8623C223.7 13.1479 226.845 7.47743 228.3 4.67146C229.214 2.92308 228.842 2.1972 227.994 2.09963C227.014 2.00207 227.147 1.27618 228.128 1.27618C228.5 1.27618 229.955 1.50644 230.763 1.50644C231.473 1.50644 232.76 1.37375 234.109 1.27618C235.054 1.20984 235.054 1.9045 234.007 2.00207C231.54 2.23232 230.187 3.25481 229.34 4.64023C226.5 9.38971 221.554 18.0808 220.617 19.8409C219.679 21.601 218.773 23.5211 218.322 24.3484C218.091 24.7738 217.467 24.4577 217.44 24.0284C217.236 21.6868 216.832 17.632 216.73 13.6748C216.73 13.3118 216.459 13.3118 216.255 13.6436C216.255 13.6436 213.835 17.8389 212.808 19.8409C211.78 21.8429 210.623 24.1221 210.455 24.4187L210.462 24.4148ZM211.565 17.8935C211.667 18.8809 212.478 18.8496 213.051 17.8623C214.165 15.9812 215.349 13.9714 216.299 12.2581C216.534 11.864 216.534 11.5986 216.503 11.2708C216.232 8.49992 216.099 6.39251 215.859 4.64414C215.655 3.0948 215.185 2.00597 213.459 2.00597C211.6 2.00597 210.553 2.86455 210.619 4.67536C210.721 6.78667 211.196 13.6787 211.565 17.8974V17.8935Z" fill="#231F20"/>
<path d="M4.67294 5.69368C4.67294 7.44986 4.53959 10.4939 4.53959 13.1789C4.53959 17.0191 4.60627 19.5714 4.67294 21.1246C4.73962 22.5139 5.50836 23.5403 7.82242 23.7745C8.79511 23.8721 8.72451 24.5706 7.82242 24.5043C6.55165 24.4028 5.01025 24.274 4.17091 24.274C3.33157 24.274 2.12748 24.5043 0.754728 24.5043C-0.217962 24.5043 -0.284638 23.876 0.754728 23.7745C2.66481 23.5755 3.36687 22.8457 3.46492 21.0934C3.5316 19.8368 3.5669 17.1869 3.5669 13.1789C3.5669 9.76801 3.50022 5.59612 3.46492 4.73364C3.39825 2.97746 2.66089 2.25158 0.754728 2.05254C-0.284638 1.95498 -0.217962 1.32275 0.754728 1.32275H6.54772L11.8701 19.0055C12.0387 19.5362 12.4741 19.5362 12.6388 19.0055L18.3024 1.32275H24.1973C25.17 1.32275 25.2367 1.95107 24.1973 2.05254C21.9539 2.25158 21.2165 2.98136 21.1498 4.73364C21.1145 5.59612 21.0479 9.76801 21.0479 13.1789C21.0479 17.1869 21.0832 19.8328 21.1498 21.0934C21.2518 22.8496 21.9539 23.5755 24.1973 23.7745C25.2367 23.8721 25.17 24.5043 24.1973 24.5043C22.4912 24.5043 21.2832 24.274 19.4437 24.274C18.271 24.274 16.7335 24.4067 15.4588 24.5043C14.5567 24.5706 14.4861 23.876 15.4588 23.7745C17.769 23.5442 18.5377 22.5178 18.6083 21.1246C18.675 19.5675 18.7416 17.0191 18.7416 13.1789C18.7416 10.4978 18.6083 6.45859 18.6083 4.70242C18.6083 3.477 18.2396 3.57846 17.8709 4.79998L12.0113 24.6018C11.8426 25.1326 11.4073 25.1326 11.2425 24.6018L5.44168 5.76002C5.1083 4.63607 4.67294 4.66729 4.67294 5.69368Z" fill="#231F20"/>
<path d="M24.8249 16.9607C24.8249 12.2346 28.1312 8.58179 32.5005 8.58179C36.8698 8.58179 39.4152 12.6795 39.4152 16.5431C39.4152 21.2692 36.1089 24.922 31.7396 24.922C28.3666 24.922 24.8249 22.6195 24.8249 16.9607ZM32.8613 23.5132C35.9363 23.5132 37.4581 21.2692 37.4581 18.8769C37.4581 14.8689 35.144 10.0492 31.0062 10.0492C27.8959 10.0492 26.7389 12.6834 26.7742 15.8836C26.8056 19.833 29.6844 23.5132 32.8613 23.5132Z" fill="#231F20"/>
<path d="M45.071 8.70277C45.4671 8.46471 45.8985 8.61301 45.8632 9.00327C45.7965 9.69013 45.6985 12.2659 45.6985 12.7732C45.6985 12.9839 45.8318 13.0425 45.9966 13.0425C46.1613 13.0425 46.1966 12.9839 46.2947 12.7732C47.8831 9.39353 49.8677 8.58569 51.0914 8.58569C51.8523 8.58569 52.3465 9.09303 52.2171 9.87356C52.0877 10.6541 51.5542 11.0717 50.2992 11.099C47.6203 11.1575 45.8671 12.8942 45.8671 16.6641L45.8985 21.3902C45.8985 22.6468 46.7261 23.5756 49.0088 23.7825C49.9697 23.8722 49.903 24.5005 49.0088 24.442C47.7498 24.3522 46.2319 24.2313 44.9062 24.2313C43.5805 24.2313 42.3921 24.442 41.0351 24.442C40.0742 24.442 40.0114 23.8722 41.0351 23.7825C42.9216 23.6029 43.6158 22.9434 43.7139 21.3589C43.8119 19.8018 43.8119 18.4281 43.8119 16.8124C43.8119 15.1967 43.7139 12.742 43.5805 11.8132C43.4472 10.8843 42.7216 10.4355 41.694 10.377C40.9017 10.3185 40.7331 9.80721 41.694 9.65891C43.0511 9.44817 44.3728 9.12035 45.067 8.70277H45.071Z" fill="#231F20"/>
<path d="M52.4681 17.4368C52.4681 11.9029 55.8764 8.57788 59.5123 8.57788C65.0033 8.57788 67.9802 14.9821 64.0423 14.9821H55.8725C55.1116 14.9821 54.7155 15.4309 54.7155 16.2972C54.7155 20.5745 57.0296 23.119 59.877 23.0917C62.0264 23.0605 63.7795 22.1629 64.8385 20.9062C65.5994 19.9774 65.9956 20.3677 65.368 21.355C63.7796 23.8995 61.2341 24.8869 59.3828 24.8869C55.347 24.8869 52.4681 22.2253 52.4681 17.4368ZM56.1079 14.3264C61.7989 14.3264 63.2187 14.3577 63.2187 13.0698C63.2187 11.216 61.8302 9.53792 59.4142 9.53792C56.9982 9.53792 55.5431 11.0053 55.0489 13.2493C54.8841 14.0259 55.1822 14.3264 56.1079 14.3264Z" fill="#231F20"/>
<path d="M76.8834 23.7747C79.1661 23.5445 79.9584 22.5181 79.9937 21.1248C80.025 19.3687 80.127 15.3295 80.127 12.6484C80.127 8.8082 80.0603 6.25589 79.9937 4.70265C79.927 3.31332 78.7896 2.05277 77.6953 2.05277C75.844 2.05277 73.9261 3.87529 72.369 5.8266C71.5415 6.85299 70.9806 6.65395 71.4434 5.66269C73.0319 2.15424 74.0909 0 74.8164 0C75.3459 0 75.0792 1.35811 76.4363 1.35811C79.1151 1.35811 84.9865 1.38933 87.2379 1.32689C88.6263 1.29567 88.3635 0.00390261 88.893 0.00390261C89.4892 0.00390261 89.7206 2.02546 90.5481 5.63147C90.7795 6.65786 90.3167 6.85689 89.7559 5.66269C88.5635 3.18063 86.9437 2.05277 85.4572 2.05277C83.606 2.05277 82.6097 2.9816 82.5117 4.73387C82.445 5.99051 82.4136 8.64038 82.4136 12.6484C82.4136 16.0592 82.4803 20.2311 82.5117 21.0936C82.5784 22.8498 83.3039 23.5757 85.1905 23.7747C86.2142 23.8723 86.1514 24.5045 85.1905 24.5045C83.8334 24.5045 82.645 24.2743 80.9899 24.2743C79.6681 24.2743 78.1463 24.4069 76.8873 24.5045C75.9931 24.5709 75.9264 23.8762 76.8873 23.7747H76.8834Z" fill="#231F20"/>
<path d="M109.555 24.4421C108.296 24.3523 106.809 24.1728 105.452 24.2314L100.193 24.4421C98.2394 24.4421 96.753 24.2314 95.4312 24.2314C94.1094 24.2314 92.9171 24.4421 91.56 24.4421C90.5677 24.4421 90.5364 23.8723 91.56 23.7826C93.4466 23.603 94.1408 22.9747 94.2389 21.359C94.2702 20.6722 94.3055 19.5951 94.3055 18.397V16.7501C94.3055 15.1344 94.2075 6.54863 94.0741 5.61981C93.9761 4.75343 93.3132 4.2734 92.1876 4.18364C91.3286 4.12511 91.3286 3.61386 92.1876 3.46556C93.7094 3.2275 94.9017 2.89578 95.5606 2.50942C95.9568 2.27136 96.3882 2.41966 96.3529 2.80992C96.2862 3.49678 96.0548 12.266 96.0548 12.7733C96.0548 13.1323 96.6157 13.1636 96.7804 12.7733C98.1375 9.93219 99.8907 8.58579 102.24 8.58579C104.919 8.58579 106.374 10.2015 106.374 13.2533V18.5804L106.441 21.3942C106.472 22.8303 107.5 23.6069 109.551 23.7865C110.477 23.8762 110.477 24.5045 109.551 24.446L109.555 24.4421ZM96.4235 21.3903C96.4549 23.3064 97.4158 23.9348 100.13 23.9348C102.479 23.9348 104.166 22.9162 104.264 21.3629C104.295 20.6761 104.331 19.5677 104.331 18.4009V16.8164C104.331 15.8876 104.299 14.2134 104.264 13.4328C104.166 11.3371 103.24 10.3225 101.452 10.381C98.5415 10.4395 96.3568 13.1636 96.3568 16.6642V18.5804L96.4235 21.3942V21.3903Z" fill="#231F20"/>
<path d="M111.143 22.4946C111.143 20.2818 114.12 18.7832 116.336 17.4993C117.991 16.5431 118.784 16.0631 118.784 15.1343V11.9927C118.784 10.2872 117.693 9.47938 116.403 9.47938C114.65 9.47938 113.791 10.8258 113.559 12.2307C113.261 14.0845 112.171 14.5645 111.21 14.5645C110.779 14.5645 110.084 14.2367 110.614 13.1869C111.806 10.8531 114.614 8.57788 117.791 8.57788C119.976 8.57788 121.035 9.92428 121.035 11.7507V21.2653C121.035 22.4009 121.894 23.72 123.847 23.24C124.212 23.1502 124.639 23.2088 124.012 23.6888C123.184 24.3171 122.29 24.4381 121.929 24.4381C120.474 24.4381 119.713 23.8098 119.086 23.1502C118.788 22.8497 118.587 22.7912 118.391 22.7912C118.227 22.7912 118.027 22.881 117.862 23.0019C116.803 23.7786 115.513 24.8869 113.861 24.8869C112.21 24.8869 111.147 23.8098 111.147 22.4946H111.143ZM115.775 22.9434C117.858 22.9434 118.784 21.956 118.784 20.7892V18.0066C118.784 17.5266 118.619 17.3197 118.223 17.3197C117.893 17.3197 117.066 17.71 116.603 17.9793C115.05 18.8769 113.626 20.1335 113.626 21.3902C113.626 22.3775 114.552 22.9473 115.775 22.9473V22.9434Z" fill="#231F20"/>
<path d="M143.128 24.442C141.873 24.3522 140.414 24.1727 139.026 24.2313L133.766 24.442C131.813 24.442 130.326 24.2313 129.005 24.2313C127.683 24.2313 126.491 24.442 125.134 24.442C124.141 24.442 124.11 23.8722 125.134 23.7825C127.02 23.6029 127.714 22.9746 127.812 21.3589C127.946 19.2945 127.91 13.5498 127.679 11.8132C127.581 10.9741 126.887 10.4355 125.792 10.377C124.934 10.3185 124.898 9.80721 125.792 9.65891C127.314 9.42085 128.507 9.08913 129.166 8.70277C129.562 8.46471 129.993 8.61301 129.958 9.00327C129.891 9.66281 129.66 12.2659 129.66 12.7732C129.66 13.1322 130.221 13.1635 130.389 12.7732C131.746 9.93209 133.499 8.58569 135.849 8.58569C138.528 8.58569 139.983 10.2014 139.983 13.2532L140.014 21.3941C140.014 22.799 141.073 23.6068 143.124 23.7864C144.05 23.8761 144.05 24.5044 143.124 24.4459L143.128 24.442ZM129.997 21.3902C129.997 23.3063 130.958 23.8722 133.703 23.8722C136.053 23.8722 137.739 22.9161 137.837 21.3589C137.935 19.595 137.935 15.2826 137.869 13.4288C137.771 11.3331 136.845 10.3185 135.057 10.377C132.111 10.4355 129.93 13.1908 129.962 16.6602L129.993 21.3863L129.997 21.3902Z" fill="#231F20"/>
</svg>
