<svg width="108" height="69" viewBox="0 0 108 69" fill="none" xmlns="http://www.w3.org/2000/svg">
<path d="M0.878843 27.6516C3.89372 27.3717 5.05256 26.1289 5.65554 24.4449C7.72356 18.7524 10.2203 11.2194 11.9821 5.52698C12.585 3.76233 10.9928 2.56217 8.9248 2.36293C7.85075 2.28229 7.41736 1.60394 8.62331 1.39996C10.2579 1.12009 11.9397 0.759564 13.188 0.119165C13.6167 -0.122764 14.2197 0.000572109 14.394 0.517635L19.2178 15.5077C19.8207 17.4337 21.6297 22.3197 22.4446 24.4449C23.09 26.1289 24.555 27.3717 27.5699 27.6516C28.8607 27.7702 28.6911 28.6146 27.4851 28.5339C25.8081 28.4153 24.2112 28.254 22.4917 28.254C20.7723 28.254 18.4452 28.5339 16.6787 28.5339C15.4303 28.5339 15.4727 27.7749 16.7635 27.6516C19.1754 27.4097 19.7784 26.5273 19.1754 24.4069C18.8315 23.2447 18.1437 21.0816 17.4512 19.075C17.2769 18.5959 16.9331 18.3539 16.3772 18.3539H9.87637C9.31579 18.3539 8.9719 18.5959 8.84471 19.1177C8.19934 21.2002 7.63876 23.0834 7.29488 24.4069C6.7343 26.5321 6.9086 27.4144 9.3205 27.6516C10.6112 27.7702 10.696 28.5339 9.44769 28.5339C7.68116 28.5339 6.30562 28.254 5.22686 28.254C4.36479 28.254 2.68777 28.4153 1.00603 28.5339C-0.199917 28.6146 -0.416612 27.7749 0.878843 27.6516ZM10.4793 17.4289H15.7742C16.462 17.4289 16.7635 17.0305 16.5468 16.428C16.4196 15.9062 16.2453 15.465 16.1181 15.1045C15.5999 13.5818 14.394 10.0525 13.4471 7.41023C13.2728 6.88842 12.8865 6.76983 12.6274 7.44818C11.8078 9.89118 10.6913 13.2213 9.65496 16.428C9.48066 17.0305 9.82926 17.4289 10.4746 17.4289H10.4793Z" fill="#231F20"/>
<path d="M29.1527 28.2067C28.6675 28.0264 28.5827 27.7038 28.3425 27.1251C28.0598 26.442 27.5322 24.6774 27.325 23.7429C27.1224 22.8416 27.895 22.7704 28.3001 23.6717C29.2328 25.6166 31.7908 28.2778 34.7585 28.2778C36.6664 28.2778 38.4141 27.0919 38.4141 24.4639C38.4141 20.0712 27.7348 19.9289 27.7348 14.5306C27.7348 11.5089 30.6178 9.45483 33.9483 9.45483C36.3036 9.45483 38.2115 9.99562 38.5789 11.1104C39.1065 12.6948 39.229 13.0885 39.6765 14.6397C39.9215 15.4651 39.2714 15.6122 38.9464 14.82C37.9713 12.339 35.696 10.3561 33.2181 10.3561C31.6353 10.3561 29.8876 11.3997 29.8876 13.3447C29.8876 17.5903 40.6517 17.3057 40.6517 23.999C40.6517 26.5559 37.8912 29.108 34.2733 29.108C31.5128 29.108 30.3351 28.6383 29.1574 28.2067H29.1527Z" fill="#231F20"/>
<path d="M54.0396 27.6517C57.1675 27.4098 58.0202 26.5274 58.1427 24.407C58.2227 23.2448 58.2651 21.2809 58.2651 19.5589C58.2651 18.7193 58.1851 18.1548 57.7375 16.9546C56.395 13.468 52.7018 5.65041 52.1742 4.56885C51.3639 2.88484 50.1014 1.64199 47.2185 1.36211C45.9984 1.24352 46.0832 0.399141 47.2185 0.479783C48.8013 0.598376 50.3888 0.759662 52.0093 0.759662C54.4447 0.759662 55.9475 0.479783 57.6151 0.479783C58.7928 0.479783 58.8351 1.24352 57.6151 1.36211C55.3822 1.60404 54.5295 2.44367 55.4623 4.6068C56.5175 7.0925 58.0626 10.8969 59.3628 13.9471C59.9704 15.3892 61.1481 15.3892 61.7982 13.9851C63.2208 11.0203 65.1287 6.85057 66.1038 4.6068C67.0366 2.48162 66.1839 1.5993 63.951 1.36211C62.7309 1.24352 62.8534 0.479783 64.0311 0.479783C65.694 0.479783 66.9565 0.759662 68.0494 0.759662C69.6746 0.759662 70.8523 0.479783 72.4351 0.479783C73.5704 0.479783 73.5327 1.24352 72.3126 1.36211C69.4296 1.64199 68.1718 2.88484 67.3569 4.56885C65.7741 7.85623 62.8911 13.8665 61.5485 16.912C61.2235 17.6709 61.101 18.2734 61.101 19.4783L61.2235 24.4497C61.2659 26.1337 62.241 27.3766 65.8542 27.6944C67.0318 27.775 66.9518 28.6147 65.8542 28.534C63.4988 28.4154 61.6286 28.2541 59.5983 28.2541C57.9731 28.2541 56.5127 28.534 54.0349 28.534C52.8572 28.534 52.7771 27.775 54.0349 27.6517H54.0396Z" fill="#231F20"/>
<path d="M68.0116 19.5351C68.0116 13.8474 72.0723 9.45947 77.4331 9.45947C82.794 9.45947 85.9219 14.3882 85.9219 19.0323C85.9219 24.7199 81.8612 29.1079 76.5004 29.1079C72.3597 29.1079 68.0116 26.3375 68.0116 19.5351ZM77.8807 27.4144C81.6587 27.4144 83.5241 24.7152 83.5241 21.8358C83.5241 17.0114 80.6836 11.2194 75.6054 11.2194C71.7897 11.2194 70.367 14.3882 70.4047 18.2353C70.4471 22.9838 73.9802 27.4144 77.8759 27.4144H77.8807Z" fill="#231F20"/>
<path d="M89.78 23.0976L89.7376 14.0656C89.7376 12.301 88.8426 11.8361 87.6649 11.727C86.4872 11.6179 86.2422 10.9727 87.6649 10.7925C89.3702 10.5743 90.4254 10.3229 91.4806 9.74887C92.1731 9.35514 92.7383 9.45951 92.6159 10.432C92.0459 15.076 92.2908 16.8739 92.2908 18.8188C92.2908 19.9336 92.3332 21.9497 92.3709 22.8842C92.4934 25.294 93.8312 26.7693 96.5541 26.7693C100.29 26.7693 102.08 22.4857 102.037 13.4158C102.037 12.301 100.982 11.7981 99.7244 11.689C98.7493 11.6179 98.5467 11.006 99.7244 10.8257C101.392 10.5743 103.012 10.1758 103.865 9.67297C104.35 9.38361 104.883 9.56387 104.84 10.0335C104.595 12.7327 104.595 16.8739 104.595 18.8141V18.8852C104.595 20.8302 104.718 23.7096 104.878 24.8243C105.038 25.9391 105.933 26.4799 107.191 26.5511C108.166 26.6222 108.369 27.2341 107.191 27.4144C105.523 27.6658 103.903 28.0643 103.05 28.5671C102.565 28.8565 102.033 28.6762 102.075 28.2066C102.155 27.3765 102.278 24.2836 102.278 23.6716C102.278 23.4202 102.198 23.202 101.995 23.202C101.792 23.202 101.628 23.4202 101.547 23.6716C100.412 27.3765 97.9343 28.7094 95.6166 28.7094C92.9362 28.7094 89.7706 27.737 89.7706 23.0929L89.78 23.0976Z" fill="#231F20"/>
<path d="M29.041 64.5272C30.9206 61.6573 33.5304 57.6346 35.8292 53.6831C36.9786 51.6908 34.3924 52.3928 32.3715 53.5882C30.8264 54.4658 30.6144 53.6119 31.8298 52.7818C34.3453 51.0504 36.8185 50.3008 38.3636 49.8597C39.7862 49.4422 40.9592 50.0162 39.1691 52.7865C32.8426 62.7436 31.9852 64.8593 31.8863 65.5708C31.8345 66.1448 32.3103 66.3535 32.6683 66.4342C33.6481 66.6524 36.1213 64.3422 37.4968 63.199C37.8925 62.8717 38.3212 63.0899 37.9585 63.5263C36.8185 64.9067 32.0747 69.195 29.2247 68.9815C27.7267 68.8677 27.152 67.4968 29.041 64.5225V64.5272ZM41.0958 44.1008C42.2829 44.2052 43.1638 45.1539 43.0696 46.2308C42.9754 47.3408 41.9485 48.1187 40.7614 48.0096C39.5319 47.9005 38.6557 46.9518 38.7499 45.8418C38.8394 44.765 39.8663 43.9917 41.0958 44.1008Z" fill="#231F20"/>
<path d="M64.9557 66.0405C68.9363 66.0405 71.466 62.6203 71.466 55.2818C71.466 53.2135 70.863 52.2885 69.657 52.2885C66.1993 52.2885 58.7234 62.3689 56.9145 67.1078C55.7509 70.0631 53.4992 69.2093 54.0221 66.6809C56.5141 55.1395 63.5472 42.2461 77.2979 42.2461C78.4237 42.2461 78.9042 42.8533 78.5839 43.7404C78.2636 44.6654 77.5004 45.2726 76.0919 45.2726C60.8197 45.2726 60.2544 53.963 58.7281 59.7361C58.5679 60.4145 59.0107 60.4856 59.3735 60.0587C63.9146 55.0351 68.6583 49.7649 71.5131 49.7649C73.6046 49.7649 74.8483 50.8701 74.8483 52.9336C74.8483 59.9496 67.7351 69.0006 63.274 69.0006C60.9846 69.0006 62.5485 66.0452 64.9604 66.0452L64.9557 66.0405Z" fill="#231F20"/>
<path d="M78.1081 67.0416C78.1081 68.052 77.4628 68.996 76.0166 68.996C74.5704 68.996 73.925 68.052 73.925 67.0416C73.925 66.0311 74.5704 65.1536 76.0166 65.1536C77.4628 65.1536 78.1081 66.0644 78.1081 67.0416Z" fill="#231F20"/>
<path d="M39.9369 65.2862C41.6799 65.1486 43.3522 67.3307 45.4203 67.1694C47.3234 67.0176 48.6236 65.9124 48.6424 64.0623C48.7272 61.4723 45.0858 58.6403 45.147 56.2874C45.3025 52.0133 49.4197 49.9451 51.808 49.7601C56.6271 49.3806 56.0854 53.4507 54.1022 53.6072C52.7643 53.7116 52.2932 50.7657 50.0274 50.9413C48.5293 51.0598 47.5307 52.3454 47.5165 53.2514C47.4129 56.1119 51.2946 59.3945 51.2003 62.3878C51.0684 66.9939 45.6652 68.7301 42.5844 68.9721C37.8878 69.3421 37.7088 65.4617 39.9369 65.2909V65.2862Z" fill="#231F20"/>
<path d="M8.76594 68.8108C8.54454 69.1998 7.80024 68.9105 7.77668 68.3365C7.40925 62.9239 6.64139 50.5808 5.86883 44.7698C5.66627 43.0858 4.53098 41.8429 1.72809 41.563C0.550401 41.4444 0.917839 40.6001 2.05313 40.6807C3.59825 40.7993 5.05858 40.9606 6.68379 40.9606C8.71412 40.9606 9.89181 40.6807 12.2472 40.6807C14.1173 40.6807 15.2102 40.9606 16.0629 40.9606C18.0932 40.9606 19.5535 40.6807 19.8786 40.6807C21.0563 40.6807 20.8113 41.4444 19.5535 41.6437C18.6208 41.805 18.2157 42.6873 18.3335 44.8077C18.3759 45.7707 18.4135 47.8959 18.536 49.9784C18.536 50.3768 18.8611 50.3768 19.106 49.9784C20.1612 48.0951 21.0563 46.0506 21.744 44.8077C22.8416 42.6826 23.2468 41.8002 22.2716 41.6437C21.094 41.4444 21.2164 40.6807 22.3941 40.6807C23.2892 40.6807 24.1795 40.9226 25.1546 40.9226C26.0073 40.9226 26.2899 40.842 27.4676 40.7234C28.6453 40.6048 28.6453 41.4444 27.3875 41.6057C24.8296 41.9283 24.0146 43.0905 23.0018 44.7698C21.7016 47.0562 20.3638 49.338 19.1437 51.4252C18.8988 51.8237 18.8187 52.2269 18.8611 52.706L19.4688 60.8841C19.5912 62.0843 20.5664 62.0463 21.2541 60.8462C24.6647 55.1158 28.4427 48.2232 30.1904 44.8125C31.288 42.6873 30.8405 41.805 29.823 41.6864C28.6453 41.5678 28.8055 40.6855 29.9831 40.6855C30.4307 40.6855 32.1783 40.9653 33.1488 40.9653C34.0014 40.9653 35.5465 40.804 37.167 40.6855C38.3023 40.6048 38.3023 41.4492 37.0445 41.5678C34.0815 41.8477 32.4563 43.0905 31.4388 44.7745C28.0282 50.5476 22.0879 61.1118 20.9621 63.2512C19.8362 65.3906 18.748 67.7245 18.2063 68.7302C17.9283 69.2473 17.1793 68.863 17.1464 68.3412C16.9014 65.495 16.4162 60.5663 16.2937 55.7562C16.2937 55.315 15.9687 55.315 15.7237 55.7182C15.7237 55.7182 12.8172 60.8177 11.583 63.2512C10.3488 65.6847 8.95908 68.4551 8.75652 68.8156L8.76594 68.8108ZM10.0897 60.8841C10.2121 62.0843 11.1873 62.0463 11.875 60.8462C13.2129 58.5597 14.6355 56.1167 15.7755 54.0342C16.0582 53.5551 16.0582 53.2325 16.0205 52.8341C15.6954 49.466 15.5353 46.9044 15.2479 44.7793C15.003 42.896 14.4377 41.5725 12.365 41.5725C10.1321 41.5725 8.87429 42.6161 8.95437 44.8172C9.07685 47.3836 9.64685 55.7609 10.0897 60.8889V60.8841Z" fill="#231F20"/>
</svg>
