<svg width="137" height="22" viewBox="0 0 137 22" fill="none" xmlns="http://www.w3.org/2000/svg">
<path d="M0.627547 20.5916C2.78014 20.3926 3.60754 19.5088 4.03806 18.3113C5.51461 14.2633 7.29723 8.90649 8.55515 4.85853C8.98567 3.60366 7.84883 2.75021 6.37228 2.60853C5.60542 2.55119 5.29599 2.06881 6.15702 1.92375C7.32413 1.72473 8.52488 1.46836 9.41619 1.01296C9.72226 0.840924 10.1528 0.928629 10.2772 1.29632L13.7214 11.956C14.1519 13.3255 15.4434 16.8 16.0253 18.3113C16.4861 19.5088 17.5321 20.3926 19.6847 20.5916C20.6063 20.676 20.4852 21.2764 19.6242 21.2191C18.4268 21.1347 17.2866 21.02 16.059 21.02C14.8313 21.02 13.1698 21.2191 11.9085 21.2191C11.0172 21.2191 11.0474 20.6793 11.969 20.5916C13.6911 20.4196 14.1216 19.7921 13.6911 18.2843C13.4456 17.4578 12.9545 15.9196 12.4601 14.4927C12.3356 14.152 12.0901 13.9799 11.6932 13.9799H7.05169C6.65145 13.9799 6.40592 14.152 6.3151 14.523C5.85431 16.0039 5.45407 17.3431 5.20854 18.2843C4.80829 19.7955 4.93274 20.423 6.65481 20.5916C7.57639 20.676 7.63693 21.2191 6.74562 21.2191C5.48434 21.2191 4.50222 21.02 3.73199 21.02C3.11648 21.02 1.9191 21.1347 0.718359 21.2191C-0.142678 21.2764 -0.297396 20.6793 0.627547 20.5916ZM7.48221 13.3221H11.2627C11.7538 13.3221 11.969 13.0388 11.8143 12.6104C11.7235 12.2393 11.5991 11.9256 11.5082 11.6692C11.1383 10.5864 10.2772 8.07666 9.60117 6.19773C9.47673 5.82667 9.20093 5.74233 9.01594 6.22472C8.4307 7.96197 7.63357 10.33 6.89361 12.6104C6.76917 13.0388 7.01806 13.3221 7.47885 13.3221H7.48221Z" fill="#231F20"/>
<path d="M20.8148 20.986C20.4684 20.8579 20.4079 20.6285 20.2363 20.2169C20.0345 19.7312 19.6578 18.4763 19.5098 17.8118C19.3652 17.1708 19.9168 17.1202 20.2061 17.7612C20.872 19.1442 22.6984 21.0366 24.8173 21.0366C26.1795 21.0366 27.4273 20.1933 27.4273 18.3245C27.4273 15.2008 19.8024 15.0996 19.8024 11.2608C19.8024 9.11201 21.8609 7.65137 24.2388 7.65137C25.9205 7.65137 27.2827 8.03592 27.5451 8.82865C27.9218 9.95533 28.0092 10.2353 28.3287 11.3384C28.5036 11.9253 28.0395 12.0299 27.8074 11.4666C27.1112 9.70234 25.4866 8.29229 23.7175 8.29229C22.5874 8.29229 21.3395 9.03442 21.3395 10.4175C21.3395 13.4366 29.025 13.2342 29.025 17.9939C29.025 19.8121 27.054 21.627 24.4709 21.627C22.4999 21.627 21.6591 21.293 20.8182 20.986H20.8148Z" fill="#231F20"/>
<path d="M38.5839 20.5918C40.8172 20.4197 41.426 19.7923 41.5134 18.2844C41.5706 17.458 41.6008 16.0614 41.6008 14.8369C41.6008 14.2398 41.5437 13.8384 41.2241 12.985C40.2656 10.5056 37.6286 4.94638 37.2519 4.17727C36.6734 2.97974 35.772 2.09594 33.7136 1.89691C32.8425 1.81258 32.903 1.21213 33.7136 1.26948C34.8437 1.35381 35.9772 1.4685 37.1342 1.4685C38.8731 1.4685 39.946 1.26948 41.1367 1.26948C41.9776 1.26948 42.0078 1.81258 41.1367 1.89691C39.5424 2.06895 38.9337 2.66603 39.5996 4.20425C40.353 5.97186 41.4562 8.67725 42.3845 10.8463C42.8184 11.8718 43.6593 11.8718 44.1234 10.8733C45.1392 8.76496 46.5014 5.79982 47.1976 4.20425C47.8636 2.69301 47.2548 2.06558 45.6605 1.89691C44.7894 1.81258 44.8768 1.26948 45.7177 1.26948C46.905 1.26948 47.8064 1.4685 48.5867 1.4685C49.7471 1.4685 50.5879 1.26948 51.718 1.26948C52.5286 1.26948 52.5017 1.81258 51.6306 1.89691C49.5722 2.09594 48.6741 2.97974 48.0923 4.17727C46.9622 6.51497 44.9037 10.7889 43.9452 12.9546C43.7131 13.4943 43.6256 13.9227 43.6256 14.7796L43.7131 18.3148C43.7434 19.5123 44.4396 20.3961 47.0193 20.6221C47.8602 20.6795 47.803 21.2765 47.0193 21.2192C45.3376 21.1349 44.0023 21.0202 42.5527 21.0202C41.3923 21.0202 40.3497 21.2192 38.5805 21.2192C37.7396 21.2192 37.6825 20.6795 38.5805 20.5918H38.5839Z" fill="#231F20"/>
<path d="M48.5598 14.8197C48.5598 10.7751 51.4591 7.65479 55.2867 7.65479C59.1143 7.65479 61.3476 11.1596 61.3476 14.4621C61.3476 18.5067 58.4483 21.627 54.6207 21.627C51.6643 21.627 48.5598 19.657 48.5598 14.8197ZM55.6062 20.4227C58.3037 20.4227 59.6356 18.5033 59.6356 16.4557C59.6356 13.0251 57.6074 8.90628 53.9817 8.90628C51.2573 8.90628 50.2415 11.1596 50.2684 13.8954C50.2987 17.2721 52.8213 20.4227 55.6028 20.4227H55.6062Z" fill="#231F20"/>
<path d="M64.1021 17.3532L64.0718 10.9304C64.0718 9.67555 63.4328 9.34496 62.5919 9.26738C61.7511 9.18979 61.5762 8.73102 62.5919 8.60284C63.8095 8.44767 64.5629 8.26888 65.3163 7.86071C65.8107 7.58073 66.2143 7.65494 66.1269 8.34647C65.7199 11.6489 65.8948 12.9274 65.8948 14.3105C65.8948 15.1032 65.9251 16.5368 65.952 17.2014C66.0394 18.915 66.9947 19.9641 68.9387 19.9641C71.6059 19.9641 72.884 16.918 72.8538 10.4683C72.8538 9.67555 72.1003 9.31798 71.2023 9.24039C70.5061 9.18979 70.3615 8.75464 71.2023 8.62645C72.393 8.44767 73.55 8.16431 74.1588 7.80674C74.5052 7.60097 74.8853 7.72915 74.855 8.06311C74.6801 9.98252 74.6801 12.9274 74.6801 14.3071V14.3577C74.6801 15.7407 74.7675 17.7883 74.8819 18.5811C74.9963 19.3738 75.6353 19.7584 76.5333 19.809C77.2296 19.8596 77.3742 20.2947 76.5333 20.4229C75.3427 20.6017 74.1857 20.885 73.5769 21.2426C73.2305 21.4484 72.8504 21.3202 72.8807 20.9862C72.9378 20.3959 73.0253 18.1965 73.0253 17.7614C73.0253 17.5826 72.9681 17.4274 72.8235 17.4274C72.6789 17.4274 72.5611 17.5826 72.504 17.7614C71.6934 20.3959 69.9242 21.3438 68.2694 21.3438C66.3556 21.3438 64.0954 20.6523 64.0954 17.3498L64.1021 17.3532Z" fill="#231F20"/>
<path d="M101.554 18.2202C102.896 16.1794 104.759 13.3188 106.401 10.5089C107.221 9.09208 105.375 9.59133 103.932 10.4414C102.829 11.0655 102.677 10.4583 103.545 9.86794C105.341 8.63669 107.107 8.1037 108.21 7.78999C109.226 7.49314 110.063 7.90131 108.785 9.87132C104.268 16.9519 103.656 18.4564 103.585 18.9624C103.548 19.3705 103.888 19.519 104.144 19.5763C104.843 19.7315 106.609 18.0887 107.591 17.2757C107.874 17.043 108.18 17.1981 107.921 17.5085C107.107 18.4901 103.72 21.5396 101.685 21.3878C100.615 21.3068 100.205 20.3319 101.554 18.2169V18.2202ZM110.161 3.6948C111.008 3.76901 111.637 4.44367 111.57 5.20941C111.503 5.99876 110.77 6.55198 109.922 6.4744C109.044 6.39681 108.419 5.72215 108.486 4.9328C108.55 4.16706 109.283 3.61721 110.161 3.6948Z" fill="#231F20"/>
<path d="M127.2 19.2965C130.042 19.2965 131.848 16.8643 131.848 11.6458C131.848 10.1751 131.418 9.51726 130.557 9.51726C128.088 9.51726 122.75 16.6855 121.459 20.0555C120.628 22.157 119.02 21.5498 119.394 19.7519C121.173 11.5446 126.194 2.37598 136.012 2.37598C136.816 2.37598 137.159 2.80776 136.93 3.43857C136.702 4.09636 136.157 4.52814 135.151 4.52814C124.247 4.52814 123.843 10.708 122.754 14.8133C122.639 15.2957 122.955 15.3463 123.214 15.0427C126.457 11.4704 129.844 7.72266 131.882 7.72266C133.375 7.72266 134.263 8.50864 134.263 9.97603C134.263 14.9651 129.184 21.4014 125.999 21.4014C124.365 21.4014 125.481 19.2998 127.203 19.2998L127.2 19.2965Z" fill="#231F20"/>
<path d="M136.591 20.0076C136.591 20.7261 136.13 21.3974 135.097 21.3974C134.065 21.3974 133.604 20.7261 133.604 20.0076C133.604 19.2891 134.065 18.665 135.097 18.665C136.13 18.665 136.591 19.3127 136.591 20.0076Z" fill="#231F20"/>
<path d="M109.337 18.7602C110.581 18.6624 111.775 20.2141 113.252 20.0994C114.611 19.9915 115.539 19.2055 115.552 17.8899C115.613 16.0481 113.013 14.0342 113.057 12.3611C113.168 9.32173 116.107 7.85097 117.813 7.71941C121.253 7.44955 120.867 10.3438 119.451 10.4552C118.495 10.5294 118.159 8.43455 116.541 8.55937C115.472 8.6437 114.759 9.55786 114.749 10.2022C114.675 12.2363 117.446 14.5706 117.379 16.6991C117.285 19.9746 113.427 21.2093 111.227 21.3813C107.874 21.6444 107.746 18.885 109.337 18.7636V18.7602Z" fill="#231F20"/>
<path d="M87.081 21.2698C86.923 21.5464 86.3915 21.3406 86.3747 20.9324C86.1124 17.0835 85.5641 8.30614 85.0125 4.17385C84.8679 2.97633 84.0573 2.09252 82.0561 1.89349C81.2152 1.80916 81.4776 1.20871 82.2882 1.26606C83.3914 1.35039 84.434 1.46508 85.5944 1.46508C87.0441 1.46508 87.8849 1.26606 89.5666 1.26606C90.9019 1.26606 91.6822 1.46508 92.291 1.46508C93.7406 1.46508 94.7833 1.26606 95.0154 1.26606C95.8562 1.26606 95.6813 1.80916 94.7833 1.95084C94.1173 2.06553 93.8281 2.69297 93.9122 4.20083C93.9424 4.88561 93.9694 6.39685 94.0568 7.87774C94.0568 8.16109 94.2889 8.16109 94.4638 7.87774C95.2172 6.53853 95.8562 5.08464 96.3473 4.20083C97.131 2.68959 97.4202 2.06216 96.724 1.95084C95.8831 1.80916 95.9706 1.26606 96.8114 1.26606C97.4505 1.26606 98.0862 1.4381 98.7824 1.4381C99.3912 1.4381 99.593 1.38075 100.434 1.29642C101.275 1.21209 101.275 1.80916 100.377 1.92385C98.5503 2.15324 97.9685 2.9797 97.2453 4.17385C96.317 5.79978 95.3618 7.42234 94.4907 8.90659C94.3158 9.18995 94.2586 9.47668 94.2889 9.81738L94.7228 15.633C94.8102 16.4864 95.5064 16.4594 95.9975 15.606C98.4326 11.531 101.13 6.62961 102.378 4.20421C103.162 2.69297 102.842 2.06553 102.116 1.9812C101.275 1.89687 101.389 1.26943 102.23 1.26943C102.549 1.26943 103.797 1.46846 104.49 1.46846C105.099 1.46846 106.202 1.35377 107.359 1.26943C108.17 1.21209 108.17 1.81254 107.272 1.89687C105.156 2.09589 103.996 2.9797 103.269 4.17722C100.834 8.28253 96.5928 15.7949 95.789 17.3162C94.9851 18.8376 94.2082 20.4973 93.8214 21.2124C93.6229 21.5801 93.0881 21.3069 93.0646 20.9358C92.8897 18.9118 92.5433 15.4069 92.4558 11.9864C92.4558 11.6727 92.2237 11.6727 92.0488 11.9594C92.0488 11.9594 89.9736 15.5857 89.0924 17.3162C88.2112 19.0467 87.219 21.0168 87.0743 21.2731L87.081 21.2698ZM88.0262 15.633C88.1136 16.4864 88.8099 16.4594 89.3009 15.606C90.2561 13.98 91.2719 12.2428 92.0858 10.7619C92.2876 10.4212 92.2876 10.1918 92.2607 9.90846C92.0287 7.51342 91.9143 5.69183 91.7091 4.18059C91.5342 2.84139 91.1306 1.90024 89.6507 1.90024C88.0564 1.90024 87.1584 2.64237 87.2156 4.20758C87.303 6.03254 87.71 11.9898 88.0262 15.6363V15.633Z" fill="#231F20"/>
</svg>
